<?xml version="1.0" encoding="UTF-8" standalone="no"?>
<!DOCTYPE svg PUBLIC "-//W3C//DTD SVG 1.1//EN" "http://www.w3.org/Graphics/SVG/1.1/DTD/svg11.dtd">
<svg width="100%" height="100%" viewBox="0 0 68 68" version="1.1" xmlns="http://www.w3.org/2000/svg" xmlns:xlink="http://www.w3.org/1999/xlink" xml:space="preserve" xmlns:serif="http://www.serif.com/" style="fill-rule:evenodd;clip-rule:evenodd;stroke-linejoin:round;stroke-miterlimit:2;">
    <g transform="matrix(1,0,0,1,-3886.25,-819)">
        <g transform="matrix(2.25616,0,0,5.4494,-11141.5,-19510.3)">
            <g transform="matrix(0.443231,0,0,0.183506,5311.11,3580.27)">
                <circle cx="3079" cy="853" r="34" style="fill:rgb(23,46,94);"/>
            </g>
        </g>
        <g transform="matrix(2.25616,0,0,5.4494,-11141.5,-19510.3)">
            <g transform="matrix(1,0,0,0.972037,-24.0749,102.192)">
                <g transform="matrix(0.0258551,0,0,0.0110125,6693.68,3736.53)">
                    <rect x="168" y="160" width="16" height="16" style="fill:white;fill-rule:nonzero;"/>
                </g>
                <g transform="matrix(0.0258551,0,0,0.0110125,6693.68,3736.53)">
                    <rect x="168" y="192" width="16" height="16" style="fill:white;fill-rule:nonzero;"/>
                </g>
                <g transform="matrix(0.0258551,0,0,0.0110125,6693.68,3736.53)">
                    <rect x="168" y="224" width="16" height="16" style="fill:white;fill-rule:nonzero;"/>
                </g>
                <g transform="matrix(0.0258551,0,0,0.0110125,6693.68,3736.53)">
                    <rect x="168" y="256" width="16" height="16" style="fill:white;fill-rule:nonzero;"/>
                </g>
                <g transform="matrix(0.0258551,0,0,0.0110125,6693.68,3736.53)">
                    <rect x="200" y="160" width="16" height="16" style="fill:white;fill-rule:nonzero;"/>
                </g>
                <g transform="matrix(0.0258551,0,0,0.0110125,6693.68,3736.53)">
                    <rect x="200" y="192" width="16" height="16" style="fill:white;fill-rule:nonzero;"/>
                </g>
                <g transform="matrix(0.0258551,0,0,0.0110125,6693.68,3736.53)">
                    <rect x="200" y="224" width="16" height="16" style="fill:white;fill-rule:nonzero;"/>
                </g>
                <g transform="matrix(0.0258551,0,0,0.0110125,6693.68,3736.53)">
                    <rect x="200" y="256" width="16" height="16" style="fill:white;fill-rule:nonzero;"/>
                </g>
                <g transform="matrix(0.0258551,0,0,0.0110125,6693.68,3736.53)">
                    <rect x="232" y="160" width="16" height="16" style="fill:white;fill-rule:nonzero;"/>
                </g>
                <g transform="matrix(0.0258551,0,0,0.0110125,6693.68,3736.53)">
                    <rect x="232" y="192" width="16" height="16" style="fill:white;fill-rule:nonzero;"/>
                </g>
                <g transform="matrix(0.0258551,0,0,0.0110125,6693.68,3736.53)">
                    <rect x="232" y="224" width="16" height="16" style="fill:white;fill-rule:nonzero;"/>
                </g>
                <g transform="matrix(0.0258551,0,0,0.0110125,6693.68,3736.53)">
                    <rect x="232" y="256" width="16" height="16" style="fill:white;fill-rule:nonzero;"/>
                </g>
                <g transform="matrix(0.0258551,0,0,0.0110125,6693.68,3736.53)">
                    <rect x="264" y="160" width="16" height="16" style="fill:white;fill-rule:nonzero;"/>
                </g>
                <g transform="matrix(0.0258551,0,0,0.0110125,6693.68,3736.53)">
                    <rect x="200" y="128" width="16" height="16" style="fill:white;fill-rule:nonzero;"/>
                </g>
                <g transform="matrix(0.0258551,0,0,0.0110125,6693.68,3736.53)">
                    <rect x="232" y="128" width="16" height="16" style="fill:white;fill-rule:nonzero;"/>
                </g>
                <g transform="matrix(0.0258551,0,0,0.0110125,6693.68,3736.53)">
                    <rect x="264" y="128" width="16" height="16" style="fill:white;fill-rule:nonzero;"/>
                </g>
                <g transform="matrix(0.0258551,0,0,0.0110125,6693.68,3736.53)">
                    <rect x="264" y="192" width="16" height="16" style="fill:white;fill-rule:nonzero;"/>
                </g>
                <g transform="matrix(0.0258551,0,0,0.0110125,6693.68,3736.53)">
                    <rect x="264" y="224" width="16" height="16" style="fill:white;fill-rule:nonzero;"/>
                </g>
                <g transform="matrix(0.0258551,0,0,0.0110125,6693.68,3736.53)">
                    <rect x="264" y="256" width="16" height="16" style="fill:white;fill-rule:nonzero;"/>
                </g>
                <g transform="matrix(0.0258551,0,0,0.0110125,6693.68,3736.53)">
                    <rect x="296" y="160" width="16" height="16" style="fill:white;fill-rule:nonzero;"/>
                </g>
                <g transform="matrix(0.0258551,0,0,0.0110125,6693.68,3736.53)">
                    <rect x="296" y="192" width="16" height="16" style="fill:white;fill-rule:nonzero;"/>
                </g>
                <g transform="matrix(0.0258551,0,0,0.0110125,6693.68,3736.53)">
                    <rect x="296" y="224" width="16" height="16" style="fill:white;fill-rule:nonzero;"/>
                </g>
                <g transform="matrix(0.0258551,0,0,0.0110125,6693.68,3736.53)">
                    <rect x="296" y="256" width="16" height="16" style="fill:white;fill-rule:nonzero;"/>
                </g>
                <g transform="matrix(0.0258551,0,0,0.0110125,6693.68,3736.53)">
                    <path d="M464,408L449.506,408C445.128,400.443 438.784,394.214 431.148,389.976C443.35,377.192 442.879,356.936 430.095,344.733C417.31,332.531 397.054,333.003 384.852,345.787C373.049,358.152 373.049,377.611 384.852,389.976C381.188,392.011 377.804,394.515 374.787,397.425C371.747,384.053 363.147,372.613 351.147,365.976C362.614,354.095 362.986,335.383 352,323.056L352,136L464,136L464,408ZM392,368C392,359.163 399.163,352 408,352C416.837,352 424,359.163 424,368C424,376.837 416.837,384 408,384C399.168,383.989 392.011,376.832 392,368ZM440,464L376,464L376,432C376,414.327 390.327,400 408,400C425.673,400 440,414.327 440,432L440,464ZM360,432L360,464L296,464L296,408C296,390.327 310.327,376 328,376C345.673,376 360,390.327 360,408L360,432ZM288.722,380.495C283.366,371.051 275.395,363.356 265.769,358.335C282.666,344.103 284.826,318.868 270.595,301.971C256.363,285.074 231.128,282.914 214.231,297.146C197.334,311.377 195.174,336.612 209.405,353.509C210.874,355.252 212.488,356.867 214.231,358.335C204.605,363.356 196.634,371.051 191.278,380.495C187.072,374.495 181.556,369.53 175.148,365.976C187.413,353.429 187.185,333.314 174.637,321.049C166.558,313.151 154.893,310.139 144,313.136L144,16L336,16L336,313.136C333.393,312.417 330.704,312.035 328,312C310.374,311.953 296.047,326.204 296,343.831C295.978,352.079 299.151,360.015 304.852,365.976C298.444,369.53 292.928,374.495 288.722,380.495ZM216,328C216,314.745 226.745,304 240,304C253.255,304 264,314.745 264,328C264,341.255 253.255,352 240,352C226.751,351.986 216.014,341.249 216,328ZM280,464L200,464L200,408C200,385.909 217.909,368 240,368C262.091,368 280,385.909 280,408L280,464ZM184,464L120,464L120,408C120,390.327 134.327,376 152,376C169.673,376 184,390.327 184,408L184,464ZM105.212,397.425C102.195,394.516 98.812,392.011 95.147,389.976C107.35,377.192 106.879,356.936 94.094,344.734C81.31,332.531 61.054,333.003 48.851,345.787C37.049,358.152 37.049,377.611 48.851,389.976C41.215,394.214 34.871,400.443 30.494,408L16,408L16,136L128,136L128,323.056C117.014,335.383 117.385,354.095 128.852,365.976C116.852,372.613 108.253,384.053 105.212,397.425ZM56,368C56,359.163 63.163,352 72,352C80.836,352 88,359.163 88,368C88,376.837 80.836,384 72,384C63.168,383.989 56.011,376.832 56,368ZM104,464L40,464L40,432C40,414.327 54.326,400 72,400C89.673,400 104,414.327 104,432L104,464ZM152,328C160.837,328 168,335.163 168,344C168,352.837 160.837,360 152,360C143.163,360 136,352.837 136,344C136.011,335.168 143.168,328.011 152,328ZM344,344C344,352.837 336.837,360 328,360C319.163,360 312,352.837 312,344C312,335.163 319.163,328 328,328C336.832,328.011 343.989,335.168 344,344ZM472,120L352,120L352,8C352.003,3.585 348.425,0.003 344.009,0L344,0L136,0C131.584,-0.002 128.003,3.576 128,7.991L128,120L8,120C3.584,119.997 0.002,123.575 0,127.991L0,416C-0.002,420.416 3.575,423.997 7.99,424L24.722,424C24.258,426.642 24.016,429.318 24,432L24,472C23.997,476.416 27.575,479.997 31.99,480L448,480C452.416,480.003 455.997,476.425 456,472.009L456,472L456,432C455.983,429.318 455.742,426.642 455.277,424L472,424C476.416,424.003 479.997,420.425 480,416.009L480,416L480,128C480.003,123.584 476.425,120.003 472.009,120L472,120Z" style="fill:white;fill-rule:nonzero;"/>
                </g>
                <g transform="matrix(0.0258551,0,0,0.0110125,6693.68,3736.53)">
                    <rect x="376" y="184" width="16" height="128" style="fill:white;fill-rule:nonzero;"/>
                </g>
                <g transform="matrix(0.0258551,0,0,0.0110125,6693.68,3736.53)">
                    <rect x="424" y="184" width="16" height="128" style="fill:white;fill-rule:nonzero;"/>
                </g>
                <g transform="matrix(0.0258551,0,0,0.0110125,6693.68,3736.53)">
                    <rect x="40" y="184" width="16" height="128" style="fill:white;fill-rule:nonzero;"/>
                </g>
                <g transform="matrix(0.0258551,0,0,0.0110125,6693.68,3736.53)">
                    <rect x="88" y="184" width="16" height="128" style="fill:white;fill-rule:nonzero;"/>
                </g>
                <g transform="matrix(0.0258551,0,0,0.0110125,6693.68,3736.53)">
                    <path d="M200,48L280,48L280,96L200,96L200,48ZM192,112L288,112C292.416,112.003 295.997,108.425 296,104.009L296,104L296,40C296.003,35.585 292.425,32.003 288.009,32L288,32L192,32C187.584,31.998 184.003,35.576 184,39.991L184,104C183.997,108.416 187.575,111.997 191.991,112L192,112Z" style="fill:white;fill-rule:nonzero;"/>
                </g>
            </g>
        </g>
    </g>
</svg>
