<?xml version="1.0" encoding="UTF-8" standalone="no"?>
<!DOCTYPE svg PUBLIC "-//W3C//DTD SVG 1.1//EN" "http://www.w3.org/Graphics/SVG/1.1/DTD/svg11.dtd">
<svg width="100%" height="100%" viewBox="0 0 68 68" version="1.1" xmlns="http://www.w3.org/2000/svg" xmlns:xlink="http://www.w3.org/1999/xlink" xml:space="preserve" xmlns:serif="http://www.serif.com/" style="fill-rule:evenodd;clip-rule:evenodd;stroke-linejoin:round;stroke-miterlimit:2;">
    <g transform="matrix(1,0,0,1,-3886.25,-3487.57)">
        <g transform="matrix(2.25616,0,0,5.4494,-11141.5,-19510.3)">
            <g transform="matrix(0.443231,0,0,0.183506,5311.11,4069.97)">
                <circle cx="3079" cy="853" r="34" style="fill:rgb(23,46,94);"/>
            </g>
        </g>
        <g transform="matrix(0.109218,0,0,0.109218,3970.83,3326.26)">
            <g transform="matrix(1,0,0,1,-632.53,1638.72)">
                <path d="M282.785,64.48L55.988,64.48C52.855,64.48 50.316,67.023 50.316,70.156L50.316,228.91C50.316,232.043 52.859,234.582 55.988,234.582L282.785,234.582C285.914,234.582 288.453,232.043 288.453,228.91L288.453,70.156C288.453,67.023 285.914,64.48 282.785,64.48ZM67.008,223.238L112.688,159.285L137.695,194.238L120.773,223.238L67.008,223.238ZM133.91,223.238L203.402,104.09L272.914,223.238L133.91,223.238ZM277.113,75.824L277.113,207.934L208.309,89.996C206.488,87.293 202.816,86.574 200.113,88.391C199.48,88.816 198.934,89.363 198.508,89.996L143.953,183.551L117.305,146.285C116.246,144.777 114.531,143.871 112.688,143.863C110.855,143.863 109.137,144.746 108.074,146.238L61.664,211.211L61.664,75.824L277.113,75.824Z" style="fill:white;fill-rule:nonzero;"/>
                <path d="M338.211,209.98L322.473,151.234L322.473,47.473C322.473,38.082 314.855,30.465 305.465,30.465L290.09,30.465L285.363,12.75C282.895,3.715 273.586,-1.637 264.535,0.777L153.676,30.465L33.309,30.465C23.918,30.465 16.301,38.082 16.301,47.473L16.301,67.27L12.605,68.254C3.559,70.723 -1.812,80.016 0.562,89.086L16.301,147.832L16.301,251.594C16.301,260.984 23.918,268.602 33.309,268.602L48.688,268.602L53.41,286.312C55.848,295.367 65.168,300.73 74.223,298.293C74.227,298.289 74.234,298.289 74.238,298.289L185.102,268.602L305.465,268.602C314.855,268.602 322.473,260.984 322.473,251.59L322.473,231.797L326.168,230.809C335.215,228.344 340.586,219.051 338.211,209.98ZM267.473,11.754C270.484,10.953 273.574,12.723 274.402,15.723L278.34,30.465L197.508,30.465L267.473,11.754ZM11.52,86.172C10.73,83.137 12.527,80.035 15.543,79.203L16.301,79.004L16.301,104.02L11.52,86.172ZM71.297,287.34C68.289,288.141 65.198,286.371 64.366,283.371L60.426,268.602L141.266,268.602L71.297,287.34ZM311.133,251.594C311.133,254.723 308.594,257.262 305.465,257.262L33.309,257.262C30.18,257.262 27.641,254.723 27.641,251.594L27.641,47.473C27.641,44.344 30.18,41.805 33.309,41.805L305.465,41.805C308.594,41.805 311.133,44.344 311.133,47.473L311.133,251.594ZM323.227,219.84L322.473,220.059L322.473,195.043L327.254,212.891C328.027,215.918 326.234,219.008 323.227,219.84Z" style="fill:white;fill-rule:nonzero;"/>
                <path d="M135.367,138.191C147.895,138.191 158.047,128.039 158.047,115.516C158.047,102.988 147.895,92.836 135.367,92.836C122.84,92.836 112.688,102.988 112.688,115.516C112.688,128.039 122.84,138.191 135.367,138.191ZM135.367,104.176C141.629,104.176 146.707,109.25 146.707,115.516C146.707,121.777 141.629,126.852 135.367,126.852C129.104,126.852 124.027,121.777 124.027,115.516C124.027,109.25 129.104,104.176 135.367,104.176Z" style="fill:white;fill-rule:nonzero;"/>
            </g>
        </g>
    </g>
</svg>
