<?xml version="1.0" encoding="UTF-8" standalone="no"?>
<!DOCTYPE svg PUBLIC "-//W3C//DTD SVG 1.1//EN" "http://www.w3.org/Graphics/SVG/1.1/DTD/svg11.dtd">
<svg width="100%" height="100%" viewBox="0 0 512 512" version="1.1" xmlns="http://www.w3.org/2000/svg" xmlns:xlink="http://www.w3.org/1999/xlink" xml:space="preserve" xmlns:serif="http://www.serif.com/" style="fill-rule:evenodd;clip-rule:evenodd;stroke-linejoin:round;stroke-miterlimit:2;">
    <g transform="matrix(1,0,0,1,-6062.17,-4658.9)">
        <g transform="matrix(1,0,0,1,6062.17,4658.9)">
            <path d="M160.008,423L90.008,423L90.008,197L160.008,197L160.008,423ZM166.992,124.996C166.992,102.367 148.633,84 126.016,84C103.313,84 85,102.367 85,124.996C85,147.633 103.313,166 126.016,166C148.633,166 166.992,147.633 166.992,124.996ZM422,298.664C422,237.996 409.184,193 338.313,193C304.258,193 281.398,210.031 272.066,227.742L272,227.742L272,197L204,197L204,423L272,423L272,310.789C272,281.402 279.48,252.934 315.906,252.934C351.836,252.934 353,286.539 353,312.656L353,423L422,423L422,298.664ZM512,452L512,60C512,26.914 485.086,0 452,0L60,0C26.914,0 0,26.914 0,60L0,452C0,485.086 26.914,512 60,512L452,512C485.086,512 512,485.086 512,452ZM452,40C463.027,40 472,48.973 472,60L472,452C472,463.027 463.027,472 452,472L60,472C48.973,472 40,463.027 40,452L40,60C40,48.973 48.973,40 60,40L452,40Z" style="fill:white;fill-rule:nonzero;"/>
        </g>
    </g>
</svg>
