<?xml version="1.0" encoding="UTF-8" standalone="no"?>
<!DOCTYPE svg PUBLIC "-//W3C//DTD SVG 1.1//EN" "http://www.w3.org/Graphics/SVG/1.1/DTD/svg11.dtd">
<svg width="100%" height="100%" viewBox="0 0 148 37" version="1.1" xmlns="http://www.w3.org/2000/svg" xmlns:xlink="http://www.w3.org/1999/xlink" xml:space="preserve" xmlns:serif="http://www.serif.com/" style="fill-rule:evenodd;clip-rule:evenodd;stroke-linejoin:round;stroke-miterlimit:2;">
    <g transform="matrix(1,0,0,1,-5571.38,105.631)">
        <g transform="matrix(1,0,0,1,187.299,-53.769)">
            <path d="M5393.52,-25.006C5393.52,-25.006 5396.48,-24.808 5397.91,-21.012C5399.34,-17.216 5400.03,-15.87 5402.15,-15.539C5404.27,-15.208 5406.07,-16.025 5406.07,-16.025C5406.07,-16.025 5402.72,-17.393 5402.13,-19.6C5401.53,-21.806 5400.78,-24.388 5398.9,-25.161C5397.03,-25.933 5395.73,-25.874 5394.85,-25.585C5393.97,-25.296 5393.52,-25.006 5393.52,-25.006Z" style="fill:white;"/>
        </g>
        <g transform="matrix(1,0,0,1,187.299,-53.769)">
            <path d="M5384.08,-29.108C5384.4,-34.776 5389.1,-39.281 5394.85,-39.281C5400.59,-39.281 5405.3,-34.776 5405.61,-29.108L5401.9,-29.108C5401.59,-32.732 5398.55,-35.58 5394.85,-35.58C5391.14,-35.58 5388.1,-32.732 5387.79,-29.108L5384.08,-29.108Z" style="fill:white;"/>
        </g>
        <g transform="matrix(1,0,0,1,187.299,-53.769)">
            <path d="M5422.61,-18.389L5418.6,-18.389L5417.6,-22.485L5411.37,-22.485L5410.37,-18.389L5406.36,-18.389L5411.46,-38.521L5417.51,-38.521L5422.61,-18.389ZM5412.17,-25.783L5416.8,-25.783L5414.48,-35.266L5412.17,-25.783Z" style="fill:white;"/>
        </g>
        <g transform="matrix(1,0,0,1,281.36,-53.769)">
            <path d="M5422.61,-18.389L5418.6,-18.389L5417.6,-22.485L5411.37,-22.485L5410.37,-18.389L5406.36,-18.389L5411.46,-38.521L5417.51,-38.521L5422.61,-18.389ZM5412.17,-25.783L5416.8,-25.783L5414.48,-35.266L5412.17,-25.783Z" style="fill:white;"/>
        </g>
        <g transform="matrix(1,0,0,1,187.299,-53.769)">
            <path d="M5516.67,-38.521L5531.14,-38.521L5531.14,-35.266L5525.8,-35.266L5525.8,-18.389L5521.93,-18.389L5521.93,-35.266L5516.67,-35.266L5516.67,-38.521Z" style="fill:white;"/>
        </g>
        <g transform="matrix(1,0,0,1,111.433,-53.769)">
            <path d="M5516.67,-38.521L5531.14,-38.521L5531.14,-35.266L5525.8,-35.266L5525.8,-18.389L5521.93,-18.389L5521.93,-35.266L5516.67,-35.266L5516.67,-38.521Z" style="fill:white;"/>
        </g>
        <g transform="matrix(3.44706,0,0,2.14394,-13147.6,-11.8403)">
            <rect x="5442.4" y="-37.524" width="3.687" height="1.518" style="fill:white;"/>
        </g>
        <g transform="matrix(3.44706,0,0,2.14394,-13147.6,5.02712)">
            <path d="M5446.08,-37.524L5442.46,-37.508L5442.39,-37.348L5442.4,-36.006L5446.08,-36.006L5446.08,-37.524Z" style="fill:white;"/>
        </g>
        <g transform="matrix(2.70125,-4.26521,1.81125,1.1471,-9020.61,23180.9)">
            <rect x="5442.4" y="-37.524" width="3.687" height="1.518" style="fill:white;"/>
        </g>
        <g transform="matrix(1,0,0,1,187.299,-53.769)">
            <path d="M5465.79,-39.089C5471.59,-39.089 5476.3,-34.379 5476.3,-28.577C5476.3,-22.775 5471.59,-18.065 5465.79,-18.065C5459.99,-18.065 5455.28,-22.775 5455.28,-28.577C5455.28,-34.379 5459.99,-39.089 5465.79,-39.089ZM5465.79,-35.586C5469.66,-35.586 5472.8,-32.445 5472.8,-28.577C5472.8,-24.709 5469.66,-21.568 5465.79,-21.568C5461.92,-21.568 5458.78,-24.709 5458.78,-28.577C5458.78,-32.445 5461.92,-35.586 5465.79,-35.586Z" style="fill:white;"/>
        </g>
        <g transform="matrix(1,0,0,1,187.299,-53.769)">
            <path d="M5478.2,-38.497L5484.32,-38.497L5488.12,-22.541L5491.91,-38.497L5498.04,-38.497L5498.04,-18.399L5494.11,-18.399L5494.11,-33.681L5490.48,-18.414L5490.48,-18.399L5485.76,-18.399L5485.76,-18.4L5485.76,-18.399L5482.12,-33.681L5482.12,-18.399L5478.2,-18.399L5478.2,-38.497Z" style="fill:white;"/>
        </g>
        <g transform="matrix(0.19171,0,0,0.19171,4539.43,-92.0099)">
            <text x="5388.04px" y="-49.752px" style="font-family:'Corbel', sans-serif;font-size:32px;fill:white;">GREEN</text>
        </g>
        <g transform="matrix(0.19171,0,0,0.19171,4539.43,-86.5352)">
            <text x="5388.04px" y="-49.752px" style="font-family:'Corbel', sans-serif;font-size:32px;fill:white;">HOUSE</text>
        </g>
        <g transform="matrix(1,0,0,1,187.299,-53.769)">
            <path d="M5405.61,-27.884C5405.3,-22.216 5400.59,-17.711 5394.85,-17.711C5389.1,-17.711 5384.4,-22.216 5384.08,-27.884L5387.79,-27.884C5388.1,-24.26 5391.14,-21.412 5394.85,-21.412C5398.55,-21.412 5401.59,-24.26 5401.9,-27.884L5405.61,-27.884Z" style="fill:white;"/>
        </g>
    </g>
</svg>
