<?xml version="1.0" encoding="UTF-8" standalone="no"?>
<!DOCTYPE svg PUBLIC "-//W3C//DTD SVG 1.1//EN" "http://www.w3.org/Graphics/SVG/1.1/DTD/svg11.dtd">
<svg width="100%" height="100%" viewBox="0 0 68 68" version="1.1" xmlns="http://www.w3.org/2000/svg" xmlns:xlink="http://www.w3.org/1999/xlink" xml:space="preserve" xmlns:serif="http://www.serif.com/" style="fill-rule:evenodd;clip-rule:evenodd;stroke-linejoin:round;stroke-miterlimit:2;">
    <g transform="matrix(1,0,0,1,-3886.25,-1437.28)">
        <g transform="matrix(2.25616,0,0,5.4494,-11141.5,-19510.3)">
            <g transform="matrix(0.443231,0,0,0.183506,5311.11,3693.73)">
                <circle cx="3079" cy="853" r="34" style="fill:rgb(23,46,94);"/>
            </g>
        </g>
        <g transform="matrix(0.161816,0,0,0.161816,3983.27,1368.98)">
            <g transform="matrix(0.437844,0,0,0.437844,-497.583,531.42)">
                <clipPath id="_clip1">
                    <rect x="0" y="0" width="494" height="461"/>
                </clipPath>
                <g clip-path="url(#_clip1)">
                    <path d="M463.918,198.367L439.008,198.367C436.094,187.812 426.539,180.469 415.59,180.367L389,180.367L389,115.344C389.062,112.867 387.781,110.547 385.652,109.281L198.078,0.938C195.926,-0.312 193.266,-0.312 191.113,0.938L3.48,109.281C1.32,110.531 -0.008,112.844 0,115.344L0,332.027C0,334.527 1.336,336.84 3.5,338.09L191.152,446.43C192.219,447.047 193.426,447.371 194.652,447.371C195.914,447.371 197.152,447.047 198.254,446.43L297,389.473L297,430.648C296.98,438.566 300.129,446.164 305.742,451.746C311.359,457.328 318.973,460.434 326.891,460.367L463.918,460.367C471.855,460.441 479.492,457.344 485.141,451.766C490.789,446.188 493.977,438.586 494,430.648L494,228.547C493.992,211.922 480.543,198.43 463.918,198.367ZM415.84,194.367C421.449,194.367 426,198.914 426,204.527L426,205.207C426,210.816 421.449,215.367 415.84,215.367L375.16,215.367C369.551,215.367 365,210.816 365,205.207L365,204.527C365,198.914 369.551,194.367 375.16,194.367L415.84,194.367ZM194.652,15.082L272.629,60.102L98.984,160.352L21.012,115.336L194.652,15.082ZM188,428.246L14,327.984L14,127.453L188,227.711L188,428.246ZM194.652,215.586L112.984,168.434L286.629,68.184L368.301,115.336L194.652,215.586ZM297,228.547L297,373.309L202,428.246L202,227.711L375,127.453L375,180.367L375.219,180.367C364.27,180.469 354.715,187.812 351.801,198.367L326.891,198.367C310.301,198.445 296.918,211.961 297,228.547ZM480,430.648C479.98,434.875 478.27,438.918 475.246,441.871C472.223,444.825 468.141,446.445 463.918,446.367L326.891,446.367C322.684,446.438 318.629,444.809 315.637,441.852C312.648,438.895 310.977,434.855 311,430.648L311,228.547C310.957,224.293 312.609,220.195 315.59,217.16C318.57,214.125 322.637,212.402 326.891,212.367L352.074,212.367C355.156,222.543 364.582,229.469 375.219,229.367L415.59,229.367C426.223,229.469 435.648,222.543 438.734,212.367L463.918,212.367C472.812,212.422 479.996,219.649 480,228.547L480,430.648Z" style="fill:white;fill-rule:nonzero;"/>
                    <path d="M334.949,299.367L342.277,299.367C346.141,299.367 349.277,296.23 349.277,292.367C349.277,288.5 346.141,285.367 342.277,285.367L342,285.367L342,266.367L361.309,266.367C362.211,269.258 364.934,271.191 367.961,271.094C371.832,271.105 374.98,267.98 375,264.109L375,259.398C374.969,255.512 371.812,252.375 367.926,252.367L334.949,252.367C333.094,252.375 331.32,253.121 330.016,254.441C328.711,255.762 327.988,257.543 328,259.398L328,292.375C327.988,294.223 328.715,296.004 330.02,297.316C331.324,298.629 333.098,299.367 334.949,299.367Z" style="fill:white;fill-rule:nonzero;"/>
                    <path d="M335,363.367L368,363.367C371.867,363.367 375,360.23 375,356.367L375,323.367C375,319.5 371.867,316.367 368,316.367L335,316.367C331.133,316.367 328,319.5 328,323.367L328,356.367C328,360.23 331.133,363.367 335,363.367ZM342,330.367L361,330.367L361,349.367L342,349.367L342,330.367Z" style="fill:white;fill-rule:nonzero;"/>
                    <path d="M342.277,413.367L342,413.367L342,394.367L360.93,394.367C361.004,398.195 364.129,401.262 367.957,401.266C371.789,401.27 374.918,398.211 375,394.379L375,387.637C374.984,383.703 371.855,380.488 367.926,380.367L334.949,380.367C331.043,380.496 327.957,383.727 328,387.637L328,420.609C328,422.438 328.734,424.184 330.047,425.457C331.355,426.73 333.125,427.418 334.949,427.367L342.277,427.367C346.145,427.367 349.277,424.23 349.277,420.367C349.277,416.5 346.145,413.367 342.277,413.367Z" style="fill:white;fill-rule:nonzero;"/>
                    <path d="M384.043,260.957L363.543,281.457L357.305,275.223C354.57,272.488 350.141,272.488 347.406,275.223C344.672,277.953 344.672,282.387 347.406,285.121L358.594,296.309C361.324,299.043 365.758,299.043 368.492,296.309L393.945,270.855C396.68,268.121 396.68,263.688 393.945,260.957C391.211,258.223 386.777,258.223 384.043,260.957Z" style="fill:white;fill-rule:nonzero;"/>
                    <path d="M384.043,390.207L363.543,410.707L357.305,404.469C354.57,401.738 350.141,401.738 347.406,404.469C344.672,407.203 344.672,411.637 347.406,414.371L358.594,425.555C361.324,428.289 365.758,428.289 368.492,425.555L393.945,400.105C396.68,397.371 396.68,392.938 393.945,390.203C391.211,387.469 386.777,387.469 384.043,390.203L384.043,390.207Z" style="fill:white;fill-rule:nonzero;"/>
                    <path d="M455.855,269.367L411.891,269.367C408.023,269.367 404.891,272.5 404.891,276.367C404.891,280.23 408.023,283.367 411.891,283.367L455.855,283.367C459.723,283.367 462.855,280.23 462.855,276.367C462.855,272.5 459.723,269.367 455.855,269.367Z" style="fill:white;fill-rule:nonzero;"/>
                    <path d="M455.855,333.367L411.891,333.367C408.023,333.367 404.891,336.5 404.891,340.367C404.891,344.23 408.023,347.368 411.891,347.368L455.855,347.368C459.723,347.368 462.855,344.23 462.855,340.367C462.855,336.5 459.723,333.367 455.855,333.367Z" style="fill:white;fill-rule:nonzero;"/>
                    <path d="M455.855,397.367L411.891,397.367C408.023,397.367 404.891,400.5 404.891,404.367C404.891,408.23 408.023,411.367 411.891,411.367L455.855,411.367C459.723,411.367 462.855,408.23 462.855,404.367C462.855,400.5 459.723,397.367 455.855,397.367Z" style="fill:white;fill-rule:nonzero;"/>
                </g>
            </g>
        </g>
    </g>
</svg>
