<?xml version="1.0" encoding="UTF-8" standalone="no"?>
<!DOCTYPE svg PUBLIC "-//W3C//DTD SVG 1.1//EN" "http://www.w3.org/Graphics/SVG/1.1/DTD/svg11.dtd">
<svg width="100%" height="100%" viewBox="0 0 68 68" version="1.1" xmlns="http://www.w3.org/2000/svg" xmlns:xlink="http://www.w3.org/1999/xlink" xml:space="preserve" xmlns:serif="http://www.serif.com/" style="fill-rule:evenodd;clip-rule:evenodd;stroke-linejoin:round;stroke-miterlimit:2;">
    <g transform="matrix(1,0,0,1,-3886.25,-2702.34)">
        <g transform="matrix(2.25616,0,0,5.4494,-11141.5,-19510.3)">
            <g transform="matrix(0.443231,0,0,0.183506,5311.11,3925.88)">
                <circle cx="3079" cy="853" r="34" style="fill:rgb(23,46,94);"/>
            </g>
        </g>
        <g transform="matrix(0.0878908,0,0,0.0878908,4047.55,2496.1)">
            <g transform="matrix(0.893688,0,0,0.893688,-690.842,2195.22)">
                <g transform="matrix(1,0,0,1,-1103.64,346.247)">
                    <path d="M362.932,239.432L358.657,239.432C354.229,239.432 350.64,243.021 350.64,247.448C350.64,251.876 354.229,255.465 358.657,255.465C363.667,255.465 367.742,259.541 367.742,264.551C367.742,269.561 363.667,273.636 358.657,273.636L350.105,273.636C345.678,273.636 342.089,277.226 342.089,281.653C342.089,286.08 345.678,289.67 350.105,289.67C355.115,289.67 359.191,293.745 359.191,298.755C359.191,303.765 355.115,307.841 350.105,307.841L341.554,307.841C337.127,307.841 333.538,311.43 333.538,315.857C333.538,320.285 337.127,323.874 341.554,323.874C346.564,323.874 350.64,327.95 350.64,332.96C350.64,337.97 346.564,342.045 341.554,342.045L212.71,342.045L212.71,264.551C212.71,260.123 209.121,256.534 204.693,256.534C200.266,256.534 196.677,260.123 196.677,264.551L196.677,350.062C196.677,350.357 196.437,350.596 196.142,350.596L144.836,350.596C144.541,350.596 144.301,350.357 144.301,350.062L144.301,213.244C144.301,212.949 144.541,212.709 144.836,212.709L196.142,212.709C196.437,212.709 196.677,212.949 196.677,213.244L196.677,230.347C196.677,234.775 200.266,238.364 204.693,238.364C209.121,238.364 212.71,234.775 212.71,230.347L212.71,213.244C212.71,212.855 212.678,212.474 212.651,212.092C218.663,207.439 223.47,202.735 226.606,199.396C229.573,196.236 232.817,194.069 236.248,192.956C255.118,186.831 267.817,176.967 275.146,169.77C284.332,160.751 289.816,151.349 289.816,144.618C289.816,141.062 291.203,137.729 293.721,135.233C296.272,132.706 299.648,131.371 303.298,131.366C307.791,131.407 310.768,133.707 312.475,135.629C315.401,138.924 316.842,143.661 316.332,148.3C314.581,164.229 301.842,183.919 283.878,198.461C281.239,200.598 280.232,204.166 281.365,207.367C282.498,210.568 285.526,212.708 288.922,212.708L362.932,212.708C370.3,212.708 376.293,218.702 376.293,226.07C376.293,233.437 370.299,239.432 362.932,239.432ZM392.327,226.071C392.327,209.862 379.141,196.676 362.932,196.676L308.909,196.676C322.034,181.923 330.612,165.125 332.269,150.053C333.281,140.848 330.437,131.711 324.464,124.984C319.005,118.835 311.54,115.408 303.444,115.333C303.35,115.332 303.256,115.332 303.163,115.332C295.332,115.332 287.982,118.349 282.435,123.844C276.887,129.341 273.817,136.664 273.781,144.479C273.496,146.19 270.486,152.089 263.121,159.093C257.092,164.828 246.675,172.714 231.296,177.706C225.266,179.665 219.755,183.269 214.917,188.421C212.379,191.123 208.577,194.855 203.869,198.601C201.56,197.377 198.932,196.677 196.141,196.677L144.835,196.677C135.699,196.677 128.267,204.109 128.267,213.245L128.267,350.063C128.267,359.199 135.699,366.631 144.835,366.631L196.141,366.631C202.37,366.631 207.801,363.173 210.63,358.08L341.553,358.08C355.404,358.08 366.672,346.811 366.672,332.961C366.672,328.304 365.399,323.939 363.181,320.196C370.398,315.778 375.223,307.82 375.223,298.756C375.223,294.099 373.95,289.735 371.732,285.992C378.95,281.574 383.774,273.616 383.774,264.552C383.774,259.31 382.16,254.438 379.404,250.406C387.197,245.114 392.327,236.18 392.327,226.071Z" style="fill:white;fill-rule:nonzero;"/>
                </g>
                <g transform="matrix(1,0,0,1,-1103.64,346.247)">
                    <path d="M170.489,316.306C166.062,316.306 162.43,319.939 162.43,324.366C162.43,328.793 166.062,332.425 170.489,332.425C174.916,332.425 178.548,328.793 178.548,324.366C178.548,319.939 174.916,316.306 170.489,316.306Z" style="fill:white;fill-rule:nonzero;"/>
                </g>
                <g transform="matrix(1,0,0,1,-1103.64,346.247)">
                    <path d="M481.641,258.835L494.868,293.833L471.474,323.032C470.253,324.555 469.63,326.472 469.722,328.422L471.486,365.795L440.214,386.336C438.583,387.407 437.398,389.038 436.882,390.921L427.011,427.01L390.922,436.882C389.039,437.397 387.409,438.581 386.337,440.213L365.796,471.485L328.423,469.721C326.472,469.631 324.556,470.252 323.033,471.473L293.834,494.867L258.834,481.64C257.922,481.295 256.961,481.123 256.001,481.123C255.042,481.123 254.081,481.296 253.168,481.64L218.169,494.867L188.97,471.473C187.447,470.252 185.527,469.631 183.58,469.721L146.207,471.485L125.666,440.213C124.595,438.582 122.964,437.397 121.081,436.882L84.991,427.01L75.12,390.921C74.605,389.038 73.42,387.408 71.788,386.336L40.517,365.795L42.28,328.422C42.372,326.472 41.749,324.555 40.528,323.032L17.135,293.833L30.361,258.835C31.052,257.009 31.052,254.993 30.361,253.166L17.135,218.167L40.528,188.968C41.749,187.445 42.372,185.529 42.28,183.578L40.517,146.205L71.788,125.664C73.419,124.593 74.605,122.962 75.12,121.079L84.991,84.99L121.081,75.119C122.964,74.604 124.594,73.419 125.666,71.787L146.207,40.516L183.58,42.279C185.527,42.37 187.447,41.748 188.97,40.528L218.169,17.134L253.168,30.36C254.994,31.051 257.009,31.051 258.836,30.36L293.835,17.134L323.034,40.528C324.557,41.749 326.474,42.371 328.424,42.279L365.797,40.516L386.338,71.787C387.409,73.418 389.04,74.604 390.923,75.119L427.012,84.99L436.883,121.079C437.399,122.962 438.583,124.592 440.215,125.664L471.487,146.205L469.723,183.578C469.631,185.529 470.254,187.445 471.475,188.968L494.869,218.167L481.642,253.166C480.951,254.993 480.951,257.008 481.641,258.835ZM497.71,256L511.481,219.557C512.484,216.906 512.012,213.923 510.238,211.71L485.879,181.307L487.716,142.391C487.849,139.561 486.478,136.868 484.109,135.313L451.548,113.925L441.269,76.347C440.521,73.613 438.385,71.477 435.652,70.73L398.074,60.452L376.686,27.89C375.129,25.521 372.438,24.155 369.607,24.284L330.692,26.12L300.289,1.761C298.077,-0.011 295.094,-0.484 292.442,0.518L255.999,14.289L219.558,0.519C216.905,-0.484 213.922,-0.011 211.711,1.762L181.307,26.121L142.392,24.285C139.548,24.151 136.869,25.522 135.314,27.891L113.925,60.453L76.347,70.731C73.613,71.479 71.477,73.615 70.73,76.348L60.452,113.926L27.89,135.314C25.521,136.871 24.15,139.562 24.283,142.392L26.12,181.308L1.761,211.711C-0.01,213.923 -0.483,216.906 0.518,219.558L14.289,256L0.518,292.442C-0.484,295.093 -0.011,298.076 1.761,300.289L26.12,330.693L24.283,369.608C24.15,372.438 25.521,375.131 27.89,376.686L60.452,398.074L70.73,435.652C71.478,438.387 73.614,440.522 76.347,441.269L113.925,451.548L135.314,484.11C136.87,486.478 139.567,487.841 142.392,487.716L181.307,485.88L211.711,510.239C213.922,512.012 216.907,512.484 219.558,511.482L256,497.71L292.443,511.482C293.363,511.829 294.322,511.999 295.276,511.999C297.071,511.999 298.845,511.396 300.289,510.239L330.692,485.88L369.607,487.716C372.446,487.842 375.129,486.478 376.686,484.11L398.074,451.548L435.652,441.269C438.386,440.521 440.522,438.386 441.269,435.652L451.548,398.074L484.109,376.686C486.478,375.13 487.849,372.438 487.716,369.608L485.879,330.693L510.238,300.289C512.01,298.078 512.482,295.094 511.481,292.442L497.71,256Z" style="fill:white;fill-rule:nonzero;"/>
                </g>
                <g transform="matrix(1,0,0,1,-1103.64,346.247)">
                    <path d="M389.144,122.491C391.071,124.418 392.982,126.413 394.823,128.417C396.403,130.139 398.564,131.012 400.73,131.012C402.667,131.012 404.61,130.314 406.15,128.901C409.411,125.907 409.628,120.835 406.634,117.574C404.639,115.402 402.57,113.242 400.481,111.154C398.393,109.067 396.233,106.996 394.061,105.002C390.8,102.008 385.729,102.224 382.734,105.486C379.74,108.747 379.956,113.819 383.219,116.813C385.222,118.652 387.215,120.562 389.144,122.491Z" style="fill:white;fill-rule:nonzero;"/>
                </g>
                <g transform="matrix(1,0,0,1,-1103.64,346.247)">
                    <path d="M122.339,122.491C152.879,91.95 193.311,72.685 236.184,68.244C278.459,63.864 321.356,73.953 356.976,96.646C360.711,99.026 365.665,97.927 368.045,94.193C370.424,90.46 369.325,85.504 365.592,83.125C326.932,58.495 280.386,47.549 234.533,52.296C188.008,57.116 144.138,78.018 111.002,111.153C74.534,147.62 53.303,196.064 51.216,247.561C49.144,298.755 66.1,348.459 98.963,387.515C100.548,389.399 102.816,390.37 105.102,390.37C106.924,390.37 108.755,389.752 110.259,388.488C113.646,385.637 114.083,380.58 111.232,377.193C80.951,341.204 65.327,295.398 67.237,248.211C69.159,200.749 88.727,156.101 122.339,122.491Z" style="fill:white;fill-rule:nonzero;"/>
                </g>
                <g transform="matrix(1,0,0,1,-1103.64,346.247)">
                    <path d="M417.441,143.589C413.707,145.968 412.609,150.923 414.988,154.657C437.682,190.279 447.769,233.177 443.391,275.449C438.95,318.323 419.685,358.754 389.145,389.296C355.533,422.906 310.886,442.475 263.425,444.397C216.246,446.315 170.431,430.684 134.443,400.404C131.054,397.553 125.998,397.989 123.148,401.376C120.297,404.764 120.733,409.82 124.12,412.671C161.041,443.736 207.472,460.589 255.686,460.587C258.475,460.587 261.275,460.531 264.075,460.418C315.572,458.332 364.015,437.101 400.482,400.633C433.618,367.498 454.521,323.626 459.34,277.102C464.09,231.246 453.141,184.702 428.511,146.043C426.131,142.308 421.174,141.209 417.441,143.589Z" style="fill:white;fill-rule:nonzero;"/>
                </g>
            </g>
        </g>
    </g>
</svg>
